name Walk6_EMG.mot
datacolumns 17
datarows 30
range 2.56200000 2.59100000
endheader
                time	            vasmed_r	            vaslat_r	            recfem_r	               gra_r	               sar_r	            tibant_r	           perlong_r	            addmag_r	           semimem_r	          bicfemlh_r	            gasmed_r	            gaslat_r	               sol_r	               tfl_r	              gmed_r	              gmax_r	
          2.56200000	          0.14714823	          0.04200428	          0.20236320	          0.59794016	          0.52598156	          0.08236448	          0.38580681	          0.27927032	          0.16637854	          0.09877270	          0.07369564	          0.25981920	          0.00228477	          0.29157934	          0.14569917	          0.22385413	
          2.56300000	          0.14929087	          0.04054674	          0.20207250	          0.59185468	          0.51856180	          0.08230113	          0.37510699	          0.27978452	          0.16284957	          0.09825759	          0.07147972	          0.25263995	          0.00109809	          0.29013095	          0.14599284	          0.22392358	
          2.56400000	          0.15133071	          0.03924161	          0.20167205	          0.58525659	          0.51102572	          0.08228839	          0.36441569	          0.28049483	          0.15931120	          0.09775309	          0.06946094	          0.24566907	          0.00017248	          0.28867266	          0.14620756	          0.22394295	
          2.56500000	          0.15327384	          0.03808514	          0.20117787	          0.57816759	          0.50342852	          0.08233406	          0.35375497	          0.28140214	          0.15577481	          0.09725740	          0.06763562	          0.23890379	          0.00000000	          0.28722278	          0.14634732	          0.22391099	
          2.56600000	          0.15512469	          0.03707358	          0.20061201	          0.57060907	          0.49582391	          0.08244601	          0.34314501	          0.28250113	          0.15225101	          0.09676929	          0.06599957	          0.23234284	          0.00000000	          0.28579792	          0.14641654	          0.22382812	
          2.56700000	          0.15688579	          0.03620331	          0.20000088	          0.56260298	          0.48826337	          0.08263070	          0.33260400	          0.28378106	          0.14874951	          0.09628892	          0.06454857	          0.22598702	          0.00000000	          0.28441487	          0.14642020	          0.22369613	
          2.56800000	          0.15855791	          0.03547091	          0.19937111	          0.55417293	          0.48079656	          0.08289347	          0.32214854	          0.28522690	          0.14527907	          0.09581796	          0.06327845	          0.21983860	          0.00000000	          0.28309694	          0.14636408	          0.22351809	
          2.56900000	          0.16014012	          0.03487297	          0.19875004	          0.54534409	          0.47347190	          0.08324038	          0.31179455	          0.28682077	          0.14184763	          0.09535879	          0.06218445	          0.21389971	          0.00000000	          0.28187759	          0.14625490	          0.22329785	
          2.57000000	          0.16162989	          0.03440582	          0.19817106	          0.53614205	          0.46634028	          0.08368132	          0.30155799	          0.28854331	          0.13846238	          0.09491340	          0.06126074	          0.20817122	          0.00000000	          0.28079663	          0.14609993	          0.22303944	
          2.57100000	          0.16302357	          0.03406525	          0.19767675	          0.52659233	          0.45946182	          0.08423275	          0.29145470	          0.29037527	          0.13512965	          0.09448316	          0.06050023	          0.20265260	          0.00000000	          0.27989238	          0.14590594	          0.22274717	
          2.57200000	          0.16431681	          0.03384653	          0.19731529	          0.51672094	          0.45290785	          0.08491916	          0.28149956	          0.29229919	          0.13185516	          0.09406917	          0.05989486	          0.19734217	          0.00068630	          0.27919601	          0.14567814	          0.22242608	
          2.57300000	          0.16550478	          0.03374444	          0.19713314	          0.50655448	          0.44675438	          0.08577249	          0.27170591	          0.29429939	          0.12864437	          0.09367219	          0.05943624	          0.19223709	          0.00157034	          0.27872980	          0.14542014	          0.22208143	
          2.57400000	          0.16658225	          0.03375364	          0.19717046	          0.49611987	          0.44107488	          0.08683017	          0.26208532	          0.29636010	          0.12550278	          0.09329248	          0.05911640	          0.18733337	          0.00260106	          0.27850850	          0.14513463	          0.22171789	
          2.57500000	          0.16754390	          0.03386891	          0.19746267	          0.48544415	          0.43593907	          0.08813296	          0.25264776	          0.29846413	          0.12243586	          0.09292998	          0.05892803	          0.18262658	          0.00376708	          0.27854374	          0.14482383	          0.22133915	
          2.57600000	          0.16838484	          0.03408518	          0.19804822	          0.47455463	          0.43141356	          0.08972273	          0.24340230	          0.30059301	          0.11944909	          0.09258463	          0.05886456	          0.17811290	          0.00505667	          0.27884996	          0.14448931	          0.22094746	
          2.57700000	          0.16910111	          0.03439715	          0.19898060	          0.46348010	          0.42756050	          0.09164117	          0.23435804	          0.30272736	          0.11654791	          0.09225680	          0.05891981	          0.17378954	          0.00645801	          0.27944892	          0.14413200	          0.22054365	
          2.57800000	          0.16969006	          0.03479899	          0.20033886	          0.45225261	          0.42443505	          0.09393281	          0.22552437	          0.30484737	          0.11373789	          0.09194720	          0.05908767	          0.16965411	          0.00795947	          0.28036972	          0.14375253	          0.22012808	
          2.57900000	          0.17014998	          0.03528466	          0.20222649	          0.44090818	          0.42208384	          0.09664972	          0.21691063	          0.30693378	          0.11102455	          0.09165653	          0.05936200	          0.16570412	          0.00954984	          0.28164444	          0.14335157	          0.21970161	
          2.58000000	          0.17047955	          0.03584821	          0.20475575	          0.42948567	          0.42054490	          0.09985014	          0.20852633	          0.30896910	          0.10841262	          0.09138565	          0.05973666	          0.16193681	          0.01121822	          0.28330183	          0.14292996	          0.21926517	
          2.58100000	          0.17067805	          0.03648403	          0.20802997	          0.41802497	          0.41984863	          0.10359244	          0.20038160	          0.31093808	          0.10590553	          0.09113590	          0.06020571	          0.15834898	          0.01295382	          0.28536277	          0.14248874	          0.21881839	
          2.58200000	          0.17074629	          0.03718708	          0.21213747	          0.40656487	          0.42002013	          0.10793154	          0.19248657	          0.31282868	          0.10350578	          0.09090873	          0.06076369	          0.15493776	          0.01474598	          0.28783915	          0.14202904	          0.21835899	
          2.58300000	          0.17068699	          0.03795282	          0.21715714	          0.39514148	          0.42108142	          0.11291598	          0.18485037	          0.31463412	          0.10121546	          0.09070531	          0.06140572	          0.15170244	          0.01658432	          0.29073564	          0.14155183	          0.21788321	
          2.58400000	          0.17050404	          0.03877669	          0.22316418	          0.38378811	          0.42305035	          0.11858333	          0.17748046	          0.31635415	          0.09903653	          0.09052651	          0.06212762	          0.14864541	          0.01845869	          0.29405308	          0.14105827	          0.21738683	
          2.58500000	          0.17020115	          0.03965407	          0.23022678	          0.37253655	          0.42593773	          0.12495716	          0.17038234	          0.31799440	          0.09697049	          0.09037283	          0.06292641	          0.14577067	          0.02035937	          0.29779066	          0.14055069	          0.21686618	
          2.58600000	          0.16978114	          0.04058058	          0.23839753	          0.36141832	          0.42974683	          0.13204701	          0.16355942	          0.31956423	          0.09501786	          0.09024400	          0.06380056	          0.14308151	          0.02227738	          0.30194496	          0.14003277	          0.21631848	
          2.58700000	          0.16924607	          0.04155196	          0.24770935	          0.35046505	          0.43447427	          0.13984955	          0.15701306	          0.32107471	          0.09317816	          0.09013890	          0.06474938	          0.14057967	          0.02420502	          0.30650739	          0.13950860	          0.21574143	
          2.58800000	          0.16859754	          0.04256379	          0.25817628	          0.33970738	          0.44010901	          0.14835082	          0.15074300	          0.32253626	          0.09145037	          0.09005586	          0.06577264	          0.13826558	          0.02613609	          0.31146276	          0.13898220	          0.21513235	
          2.58900000	          0.16783679	          0.04361131	          0.26979425	          0.32917354	          0.44663007	          0.15753118	          0.14474778	          0.32395607	          0.08983353	          0.08999339	          0.06687071	          0.13613886	          0.02806537	          0.31678980	          0.13845790	          0.21448806	
          2.59000000	          0.16696468	          0.04468959	          0.28254137	          0.31888972	          0.45400510	          0.16737166	          0.13902509	          0.32533671	          0.08832661	          0.08995091	          0.06804494	          0.13419863	          0.02998787	          0.32246386	          0.13794054	          0.21380577	
          2.59100000	          0.16598164	          0.04579389	          0.29637941	          0.30888179	          0.46219147	          0.17785674	          0.13357160	          0.32667668	          0.08692826	          0.08992871	          0.06929726	          0.13244327	          0.03189843	          0.32845947	          0.13743455	          0.21308387	
